<svg class="ScalingSvg__background__svg" viewBox="0 0 1000 1000" preserveAspectRatio="none"><pattern id="stars" width="2000" height="2000" patternUnits="userSpaceOnUse"><circle cx="1611.8314518777295" cy="1685.8173332976562" r="1" fill="white"></circle><circle cx="1260.9664732589106" cy="358.59950937868444" r="1" fill="white"></circle><circle cx="444.24908269387055" cy="385.22461471690406" r="1" fill="white"></circle><circle cx="108.10637871429529" cy="708.5193154988581" r="1" fill="white"></circle><circle cx="957.1752975543748" cy="881.8853654300395" r="1" fill="white"></circle><circle cx="179.31154052550235" cy="306.84405689193375" r="1" fill="white"></circle><circle cx="1587.538714060139" cy="1867.0110726109708" r="1" fill="white"></circle><circle cx="1639.592398017907" cy="397.7735171145058" r="1" fill="white"></circle><circle cx="1723.1059667932711" cy="1078.9891225018332" r="1" fill="white"></circle><circle cx="1763.115576697639" cy="666.9977296316775" r="1" fill="white"></circle><circle cx="1345.9968795216541" cy="742.1232832861011" r="1" fill="white"></circle><circle cx="1322.182979003493" cy="1081.6289165014266" r="1" fill="white"></circle><circle cx="1589.2507807697327" cy="297.2880369776667" r="1" fill="white"></circle><circle cx="1939.4688803073952" cy="1131.2425867724496" r="1" fill="white"></circle><circle cx="375.3314842720439" cy="1321.861991617941" r="1" fill="white"></circle><circle cx="941.2591171111986" cy="107.70460637560308" r="1" fill="white"></circle><circle cx="1308.3934362920645" cy="1277.731427212721" r="1" fill="white"></circle><circle cx="425.9872906372024" cy="683.5114382827708" r="1" fill="white"></circle><circle cx="511.39786891419135" cy="1166.2467748962201" r="1" fill="white"></circle><circle cx="787.0713924504016" cy="58.65477628261439" r="1" fill="white"></circle><circle cx="1748.5091061686603" cy="1941.0262408099861" r="1" fill="white"></circle><circle cx="1780.9426228389968" cy="911.5201078052011" r="1" fill="white"></circle><circle cx="1718.5500381761537" cy="552.7865677872801" r="1" fill="white"></circle><circle cx="1838.494649547146" cy="1900.2610134554266" r="1" fill="white"></circle><circle cx="461.7770048335514" cy="1044.6322686862638" r="1" fill="white"></circle><circle cx="405.66314501340185" cy="1717.7604264781858" r="1" fill="white"></circle><circle cx="342.5682801734791" cy="158.20395497502471" r="1" fill="white"></circle><circle cx="296.0319765743127" cy="244.69832979309913" r="1" fill="white"></circle><circle cx="688.0637133882024" cy="654.8502636805864" r="1" fill="white"></circle><circle cx="1566.188994535858" cy="585.8842891932441" r="1" fill="white"></circle><circle cx="206.51307042095723" cy="132.0896749138618" r="1" fill="white"></circle><circle cx="1278.1600142986865" cy="1921.6578663702646" r="1" fill="white"></circle><circle cx="1618.8551423431913" cy="1751.036132626401" r="1" fill="white"></circle><circle cx="580.3004254704827" cy="1084.2876738720136" r="1" fill="white"></circle><circle cx="1057.2293474017779" cy="1550.8977874175923" r="1" fill="white"></circle><circle cx="726.304796666994" cy="431.8041030248003" r="1" fill="white"></circle><circle cx="42.13271926884099" cy="1520.5724095131563" r="1" fill="white"></circle><circle cx="120.64785577069115" cy="1956.8653625084514" r="1" fill="white"></circle><circle cx="439.0875820519802" cy="840.3634222921074" r="1" fill="white"></circle><circle cx="438.459973529004" cy="1317.7809669989772" r="1" fill="white"></circle><circle cx="1876.7257635872108" cy="133.36951428180743" r="1" fill="white"></circle><circle cx="1573.0080981262597" cy="1560.364276114298" r="1" fill="white"></circle><circle cx="240.02172086100916" cy="1599.0605556194835" r="1" fill="white"></circle><circle cx="1445.543627316395" cy="101.77003656055118" r="1" fill="white"></circle><circle cx="930.9086233007466" cy="759.8965423338808" r="1" fill="white"></circle><circle cx="1627.8328357168598" cy="1970.6328633672513" r="1" fill="white"></circle><circle cx="1999.0660729820706" cy="312.21393138717167" r="1" fill="white"></circle><circle cx="1067.1351705688505" cy="1402.9324324305783" r="1" fill="white"></circle><circle cx="1623.3680144002967" cy="1795.127534887072" r="1" fill="white"></circle><circle cx="1270.8968004465496" cy="1167.534785446692" r="1" fill="white"></circle><circle cx="672.2699122677187" cy="1858.7282137872387" r="1" fill="white"></circle><circle cx="1467.8692817880021" cy="1324.2540355164256" r="1" fill="white"></circle><circle cx="992.7967613984409" cy="1411.6061648718512" r="1" fill="white"></circle><circle cx="1771.09126100208" cy="1916.055116213057" r="1" fill="white"></circle><circle cx="971.9601679659888" cy="319.3909244508055" r="1" fill="white"></circle><circle cx="221.85570832907732" cy="1656.3090984927317" r="1" fill="white"></circle><circle cx="1874.5432268670909" cy="1082.7392799830186" r="1" fill="white"></circle><circle cx="235.85688633658154" cy="1341.2809959006568" r="1" fill="white"></circle><circle cx="898.8490124656118" cy="1515.4128424979199" r="1" fill="white"></circle><circle cx="971.9411866852936" cy="409.1199727837429" r="1" fill="white"></circle><circle cx="1856.4426057613418" cy="1012.6891959162405" r="1" fill="white"></circle><circle cx="1585.8012800876304" cy="87.13036800132512" r="1" fill="white"></circle><circle cx="409.07978033747526" cy="1488.5598439234661" r="1" fill="white"></circle><circle cx="876.3587428014765" cy="1143.1413562666962" r="1" fill="white"></circle><circle cx="1683.996727645368" cy="1145.3787901142452" r="1" fill="white"></circle><circle cx="406.1320935541275" cy="1862.254454965031" r="1" fill="white"></circle><circle cx="853.3829903233534" cy="570.8238579881844" r="1" fill="white"></circle><circle cx="231.12826956970167" cy="1328.7880407326375" r="1" fill="white"></circle><circle cx="1827.9560492156982" cy="1298.622822238645" r="1" fill="white"></circle><circle cx="816.8926605026874" cy="1974.4437206982273" r="1" fill="white"></circle><circle cx="955.2342728137236" cy="1498.555713505548" r="1" fill="white"></circle><circle cx="867.1952882635039" cy="1341.7638497719456" r="1" fill="white"></circle><circle cx="1134.090026458885" cy="524.8001755519134" r="1" fill="white"></circle><circle cx="41.39109634478011" cy="1268.3498600727266" r="1" fill="white"></circle><circle cx="1768.854205949641" cy="1542.0566846829104" r="1" fill="white"></circle><circle cx="1779.585306309595" cy="1611.8738436875365" r="1" fill="white"></circle><circle cx="678.9056020748534" cy="491.4974331574928" r="1" fill="white"></circle><circle cx="1902.7859228710113" cy="1313.672875290965" r="1" fill="white"></circle><circle cx="1199.6974369087852" cy="526.0854838383771" r="1" fill="white"></circle><circle cx="575.7852973559241" cy="574.5344790040594" r="1" fill="white"></circle><circle cx="109.28179116308013" cy="644.6242546281344" r="1" fill="white"></circle><circle cx="819.158129066607" cy="959.0488081853712" r="1" fill="white"></circle><circle cx="1484.04996090313" cy="1098.0556716465483" r="1" fill="white"></circle><circle cx="313.8180014917591" cy="1074.3935528582629" r="1" fill="white"></circle><circle cx="175.80836189964" cy="475.6795502254354" r="1" fill="white"></circle><circle cx="730.0490057745317" cy="1915.965457153168" r="1" fill="white"></circle><circle cx="1269.8307137684676" cy="114.9383420194634" r="1" fill="white"></circle><circle cx="1194.5686832492984" cy="1052.1736303199978" r="1" fill="white"></circle><circle cx="1420.3344988910956" cy="1181.4340691527098" r="1" fill="white"></circle><circle cx="1863.8560291382596" cy="536.7653939152923" r="1" fill="white"></circle><circle cx="284.5177572644646" cy="1994.824425331145" r="1" fill="white"></circle><circle cx="996.865664275406" cy="436.80112729808894" r="1" fill="white"></circle><circle cx="275.9312196931312" cy="517.9694508714085" r="1" fill="white"></circle><circle cx="576.0498425273211" cy="1333.5858893193279" r="1" fill="white"></circle><circle cx="226.99022107012823" cy="523.2646365438502" r="1" fill="white"></circle><circle cx="1195.8984796921532" cy="1936.1713344605662" r="1" fill="white"></circle><circle cx="1997.2659511299137" cy="1105.8405693555135" r="1" fill="white"></circle><circle cx="110.92602843083732" cy="1126.768607207055" r="1" fill="white"></circle><circle cx="32.75456486933281" cy="850.3479890669165" r="1" fill="white"></circle><circle cx="724.0527162958977" cy="506.38447761908355" r="1" fill="white"></circle><circle cx="461.00262505517134" cy="445.73909311591507" r="1" fill="white"></circle><circle cx="1037.2959438601126" cy="1640.6932918235607" r="1" fill="white"></circle><circle cx="1810.5599144633952" cy="1518.7604349519934" r="1" fill="white"></circle><circle cx="1355.3732716031486" cy="1701.4679227282584" r="1" fill="white"></circle><circle cx="1924.106481471555" cy="429.8041095149987" r="1" fill="white"></circle><circle cx="1950.792365682871" cy="1368.8825085107492" r="1" fill="white"></circle><circle cx="923.1686896467521" cy="1073.7438950962242" r="1" fill="white"></circle><circle cx="79.33353399111098" cy="196.27037112075828" r="1" fill="white"></circle><circle cx="1258.9864005513523" cy="1123.003057698384" r="1" fill="white"></circle><circle cx="1211.323668788609" cy="271.88782998935415" r="1" fill="white"></circle><circle cx="406.5872559251451" cy="160.3338739511755" r="1" fill="white"></circle><circle cx="875.4578386499356" cy="990.6420952456299" r="1" fill="white"></circle><circle cx="1502.837373520868" cy="467.0580675354734" r="1" fill="white"></circle><circle cx="214.03047530228835" cy="444.95918634371856" r="1" fill="white"></circle><circle cx="188.31210913674923" cy="650.319684134229" r="1" fill="white"></circle><circle cx="1444.5974713290318" cy="152.65321021222445" r="1" fill="white"></circle><circle cx="1883.5645564623044" cy="1114.3959576381933" r="1" fill="white"></circle><circle cx="23.28812822462689" cy="643.533436583648" r="1" fill="white"></circle><circle cx="770.3025808922544" cy="1179.9008024424738" r="1" fill="white"></circle><circle cx="490.74478010687005" cy="1558.7576463123992" r="1" fill="white"></circle><circle cx="1044.4091530322503" cy="266.3889827209376" r="1" fill="white"></circle><circle cx="1798.877539083938" cy="1182.9186260623167" r="1" fill="white"></circle><circle cx="1628.996609551998" cy="1495.645323877802" r="1" fill="white"></circle><circle cx="379.8561984901419" cy="841.3383703402934" r="1" fill="white"></circle><circle cx="1690.0912555688303" cy="964.9996239507259" r="1" fill="white"></circle><circle cx="201.55614066317273" cy="966.8798684543551" r="1" fill="white"></circle><circle cx="1785.7798399434346" cy="1777.5434225916672" r="1" fill="white"></circle><circle cx="1326.3327319569255" cy="246.6231191745294" r="1" fill="white"></circle><circle cx="1303.9562858040906" cy="1185.9500843137348" r="1" fill="white"></circle><circle cx="26.787327867632715" cy="1494.018833723121" r="1" fill="white"></circle><circle cx="740.7779418875853" cy="324.2327649414971" r="1" fill="white"></circle><circle cx="1402.68487190287" cy="1163.187994535479" r="1" fill="white"></circle><circle cx="1252.3475951913244" cy="1583.8985425161889" r="1" fill="white"></circle><circle cx="1027.8463152990355" cy="145.15932996403302" r="1" fill="white"></circle><circle cx="760.0452753740967" cy="1035.0308340508616" r="1" fill="white"></circle><circle cx="1658.883617626839" cy="554.2209361344917" r="1" fill="white"></circle><circle cx="868.435380566793" cy="171.48452640488676" r="1" fill="white"></circle><circle cx="1804.9644509555067" cy="794.759891232149" r="1" fill="white"></circle><circle cx="1883.787978135241" cy="1062.3130978671825" r="1" fill="white"></circle><circle cx="1542.9703475897575" cy="1427.0348444729227" r="1" fill="white"></circle><circle cx="1412.8026440723818" cy="1695.8353178870987" r="1" fill="white"></circle><circle cx="1342.420047221074" cy="1913.1218252163999" r="1" fill="white"></circle><circle cx="869.440123892577" cy="435.22707756059685" r="1" fill="white"></circle><circle cx="1161.1508842213257" cy="187.80725740114823" r="1" fill="white"></circle><circle cx="224.61904624130958" cy="639.9315196432069" r="1" fill="white"></circle><circle cx="853.891164433652" cy="74.90687556712005" r="1" fill="white"></circle><circle cx="1932.9096262350358" cy="1155.1638665953137" r="1" fill="white"></circle><circle cx="1167.6037178905058" cy="1900.298347305972" r="1" fill="white"></circle><circle cx="1139.656774381464" cy="1981.9807106870035" r="1" fill="white"></circle><circle cx="439.1241859584683" cy="1280.0796985301242" r="1" fill="white"></circle><circle cx="1091.9644983138937" cy="1279.7328343823126" r="1" fill="white"></circle><circle cx="500.0158325261705" cy="1293.7625109507098" r="1" fill="white"></circle><circle cx="486.32093858474025" cy="1742.2032995565417" r="1" fill="white"></circle><circle cx="202.66699121490285" cy="1580.0407052115033" r="1" fill="white"></circle><circle cx="665.4511589468557" cy="978.1298495617197" r="1" fill="white"></circle><circle cx="206.97383804078794" cy="651.4306554431965" r="1" fill="white"></circle><circle cx="185.45469513930124" cy="883.4164643668432" r="1" fill="white"></circle><circle cx="1646.6159116655056" cy="1322.7043250579525" r="1" fill="white"></circle><circle cx="953.7584796737599" cy="1375.2554387995897" r="1" fill="white"></circle><circle cx="1626.3597255473287" cy="301.11390974352537" r="1" fill="white"></circle><circle cx="1691.3841207036414" cy="289.71144173050556" r="1" fill="white"></circle><circle cx="800.8898756596121" cy="782.0244203887383" r="1" fill="white"></circle><circle cx="449.3389680032798" cy="1547.3076361980102" r="1" fill="white"></circle><circle cx="915.7875876013239" cy="1326.3545287302288" r="1" fill="white"></circle><circle cx="392.1544391743148" cy="389.2344628903186" r="1" fill="white"></circle><circle cx="111.27187113145575" cy="1463.1246371862358" r="1" fill="white"></circle><circle cx="1389.5077748556664" cy="300.25295628903194" r="1" fill="white"></circle><circle cx="1908.8800883753443" cy="1435.1070872849255" r="1" fill="white"></circle><circle cx="1005.8383376775497" cy="934.8114139034523" r="1" fill="white"></circle><circle cx="59.912905751551726" cy="297.2744312208104" r="1" fill="white"></circle><circle cx="264.4312386359724" cy="756.2891013072247" r="1" fill="white"></circle><circle cx="1209.1900965330624" cy="628.8410820599357" r="1" fill="white"></circle><circle cx="1771.2619677320727" cy="698.1746960408874" r="1" fill="white"></circle><circle cx="632.134894887396" cy="370.9218863454069" r="1" fill="white"></circle><circle cx="233.52894416866255" cy="1132.3486887224092" r="1" fill="white"></circle><circle cx="118.49963873899804" cy="296.0271185667529" r="1" fill="white"></circle><circle cx="815.9833575954507" cy="414.43001535026" r="1" fill="white"></circle><circle cx="918.806829393227" cy="462.3955448354593" r="1" fill="white"></circle><circle cx="1663.2689482700123" cy="119.01185004367409" r="1" fill="white"></circle><circle cx="1171.8304884884603" cy="737.6253052480246" r="1" fill="white"></circle><circle cx="1330.2024321764638" cy="600.3889375984102" r="1" fill="white"></circle><circle cx="1633.3997767026815" cy="301.89817718341374" r="1" fill="white"></circle><circle cx="821.2827729588516" cy="152.74366383686112" r="1" fill="white"></circle><circle cx="1508.759196432631" cy="705.1845871066522" r="1" fill="white"></circle><circle cx="868.5474288094239" cy="1050.2659557422076" r="1" fill="white"></circle><circle cx="841.6606215484852" cy="546.3234560777402" r="1" fill="white"></circle><circle cx="1364.622299119795" cy="385.54705508472864" r="1" fill="white"></circle><circle cx="695.0525706829311" cy="862.8974034135175" r="1" fill="white"></circle><circle cx="1549.5130874423526" cy="561.7887822953671" r="1" fill="white"></circle><circle cx="759.3745892433956" cy="1246.1211023452292" r="1" fill="white"></circle><circle cx="825.4505611108822" cy="1264.3848285065355" r="1" fill="white"></circle><circle cx="1055.2860046044689" cy="982.8828229066424" r="1" fill="white"></circle><circle cx="1277.1604896007304" cy="508.83927903189317" r="1" fill="white"></circle><circle cx="493.51808191458747" cy="781.1601441028087" r="1" fill="white"></circle><circle cx="597.5601828336581" cy="892.5252833852176" r="1" fill="white"></circle><circle cx="81.68845270946834" cy="1003.0627177871878" r="1" fill="white"></circle><circle cx="0.6216857746839111" cy="1508.731187722764" r="1" fill="white"></circle><circle cx="918.0361521723665" cy="300.7911612372509" r="1" fill="white"></circle><circle cx="730.2935258196305" cy="1512.4582595966506" r="1" fill="white"></circle><circle cx="1325.771381441303" cy="1275.2985461486999" r="1" fill="white"></circle><circle cx="825.482222395185" cy="1571.890834392434" r="1" fill="white"></circle><circle cx="1184.0570486006188" cy="15.120595066969944" r="1" fill="white"></circle><circle cx="600.7666238800526" cy="980.4716562309461" r="1" fill="white"></circle><circle cx="1861.4785365099174" cy="46.15916886619908" r="1" fill="white"></circle><circle cx="1253.1016578784859" cy="1934.7873499297057" r="1" fill="white"></circle><circle cx="1181.8498973891337" cy="1263.0111587193219" r="1" fill="white"></circle><circle cx="1948.2619311174396" cy="1856.4843436891913" r="1" fill="white"></circle><circle cx="64.81173312261834" cy="975.1619335472492" r="1" fill="white"></circle><circle cx="992.8038227874833" cy="1169.7126836481564" r="1" fill="white"></circle><circle cx="1549.6304453960201" cy="1953.8506660192336" r="1" fill="white"></circle><circle cx="896.4775343859732" cy="1551.407886890233" r="1" fill="white"></circle><circle cx="1655.2377715334062" cy="1071.1118246559859" r="1" fill="white"></circle><circle cx="934.1664736495674" cy="693.8008426477245" r="1" fill="white"></circle><circle cx="76.2920739337698" cy="1999.7207363902426" r="1" fill="white"></circle><circle cx="1683.3312821189058" cy="1759.4184369853135" r="1" fill="white"></circle><circle cx="1797.36371368883" cy="445.9128959250034" r="1" fill="white"></circle><circle cx="207.5714520850034" cy="3.2639837917605163" r="1" fill="white"></circle><circle cx="1943.5178956427342" cy="1694.103748042347" r="1" fill="white"></circle><circle cx="346.8402901007277" cy="1264.1873241742521" r="1" fill="white"></circle><circle cx="1956.7388219422348" cy="1485.8317128714468" r="1" fill="white"></circle><circle cx="753.1698087629679" cy="1336.7286821081495" r="1" fill="white"></circle><circle cx="1790.242715131106" cy="1512.7576735009786" r="1" fill="white"></circle><circle cx="1567.5563627195702" cy="350.59336377750896" r="1" fill="white"></circle><circle cx="1993.005539636862" cy="1569.0799012555422" r="1" fill="white"></circle><circle cx="1145.1462855090795" cy="1322.4153397875625" r="1" fill="white"></circle><circle cx="1266.6021827057014" cy="1970.554105355328" r="1" fill="white"></circle><circle cx="1875.9552668943043" cy="108.85143446851365" r="1" fill="white"></circle><circle cx="467.4813208676789" cy="663.6215176299962" r="1" fill="white"></circle><circle cx="233.68655406611305" cy="568.949701073516" r="1" fill="white"></circle><circle cx="1057.7952436864248" cy="1446.4970739217433" r="1" fill="white"></circle><circle cx="799.0566119711806" cy="548.0057236447742" r="1" fill="white"></circle><circle cx="977.0356094736754" cy="1168.1231695097174" r="1" fill="white"></circle><circle cx="112.74025486179484" cy="367.90363954946815" r="1" fill="white"></circle><circle cx="128.38058275480702" cy="724.1381144017458" r="1" fill="white"></circle><circle cx="939.8513329920588" cy="317.64985279484125" r="1" fill="white"></circle><circle cx="612.7257631457068" cy="1826.6195198942269" r="1" fill="white"></circle><circle cx="629.5604623968974" cy="1806.569187342361" r="1" fill="white"></circle><circle cx="860.5553745808412" cy="728.8574765568993" r="1" fill="white"></circle><circle cx="124.55898207570826" cy="1612.3730212881878" r="1" fill="white"></circle><circle cx="1332.6293034489454" cy="1762.2958471892885" r="1" fill="white"></circle><circle cx="1041.1805643387306" cy="597.8443998086295" r="1" fill="white"></circle><circle cx="1204.9797363576943" cy="765.9994854721343" r="1" fill="white"></circle><circle cx="453.45801322432465" cy="1974.233780715418" r="1" fill="white"></circle><circle cx="259.86502317565476" cy="1610.0349611560648" r="1" fill="white"></circle><circle cx="1650.4281126823917" cy="1697.3516383087212" r="1" fill="white"></circle><circle cx="289.7239169915706" cy="1399.7131134340095" r="1" fill="white"></circle><circle cx="241.16171233721496" cy="1124.4790871609096" r="1" fill="white"></circle><circle cx="1296.859313558251" cy="1382.5689804853344" r="1" fill="white"></circle><circle cx="201.87999011352397" cy="821.5534091279468" r="1" fill="white"></circle><circle cx="968.4071643692093" cy="139.40906805619414" r="1" fill="white"></circle><circle cx="721.8612097826567" cy="4.117273578734704" r="1" fill="white"></circle><circle cx="675.0002005332889" cy="1170.5943971997037" r="1" fill="white"></circle><circle cx="1465.168588076787" cy="1267.8898685500913" r="1" fill="white"></circle><circle cx="131.8349923218305" cy="1267.3437750700652" r="1" fill="white"></circle><circle cx="1102.5467512943558" cy="710.8009959466002" r="1" fill="white"></circle><circle cx="1844.343956359283" cy="699.9103869239041" r="1" fill="white"></circle><circle cx="1292.9332414471921" cy="1355.67124321328" r="1" fill="white"></circle><circle cx="1819.9045360481855" cy="1991.4321262153658" r="1" fill="white"></circle><circle cx="1316.623388391363" cy="439.41412714300697" r="1" fill="white"></circle><circle cx="133.59058054838525" cy="1820.8023907786637" r="1" fill="white"></circle><circle cx="1744.6189292482322" cy="702.1492568300691" r="1" fill="white"></circle><circle cx="888.7944141603472" cy="817.2159797926741" r="1" fill="white"></circle><circle cx="1795.6871954068579" cy="1134.942319266313" r="1" fill="white"></circle><circle cx="1214.201435410593" cy="734.7431966451903" r="1" fill="white"></circle><circle cx="612.8553255277147" cy="835.4588696320686" r="1" fill="white"></circle><circle cx="402.2641405433314" cy="978.5573825221028" r="1" fill="white"></circle><circle cx="195.3969814307155" cy="1067.1119511415425" r="1" fill="white"></circle><circle cx="349.83747948323975" cy="1071.7666572875664" r="1" fill="white"></circle><circle cx="1860.915731503857" cy="1576.1217313254595" r="1" fill="white"></circle><circle cx="1997.6181613666247" cy="1151.5976538948762" r="1" fill="white"></circle><circle cx="1504.2702372798815" cy="694.8120696609373" r="1" fill="white"></circle><circle cx="1569.2487514793324" cy="185.91225889780904" r="1" fill="white"></circle><circle cx="926.3941436171228" cy="1787.332182373829" r="1" fill="white"></circle><circle cx="1471.3168572890972" cy="621.4044309211189" r="1" fill="white"></circle><circle cx="99.00522180567518" cy="1929.9928435802535" r="1" fill="white"></circle><circle cx="1925.165666083947" cy="596.3733915273704" r="1" fill="white"></circle><circle cx="1357.470773160083" cy="1182.426086443694" r="1" fill="white"></circle><circle cx="1701.9772261932133" cy="1282.3900977623955" r="1" fill="white"></circle><circle cx="1937.8556068573087" cy="1103.3966104252402" r="1" fill="white"></circle><circle cx="1017.0338070954297" cy="1052.0225853928614" r="1" fill="white"></circle><circle cx="1838.1199685428164" cy="1491.9118463073976" r="1" fill="white"></circle><circle cx="1619.0196522996944" cy="991.3232467712354" r="1" fill="white"></circle><circle cx="763.3861552611667" cy="1617.1846663347394" r="1" fill="white"></circle><circle cx="1401.823785301227" cy="1969.1823736031306" r="1" fill="white"></circle><circle cx="1049.3454422686614" cy="206.5695227874378" r="1" fill="white"></circle><circle cx="973.346204231241" cy="1285.4535006328533" r="1" fill="white"></circle><circle cx="1761.0271512170934" cy="1003.4479550675242" r="1" fill="white"></circle><circle cx="1019.7746489371377" cy="1758.0013013836835" r="1" fill="white"></circle><circle cx="618.5021816452778" cy="810.8128997477455" r="1" fill="white"></circle><circle cx="1022.8768978780485" cy="1109.5963522171335" r="1" fill="white"></circle><circle cx="656.5180652621532" cy="1302.808162572767" r="1" fill="white"></circle><circle cx="465.6896081921298" cy="1369.284199656813" r="1" fill="white"></circle><circle cx="1591.803639310243" cy="1497.6737156666088" r="1" fill="white"></circle><circle cx="780.1726084997708" cy="1954.1068433871653" r="1" fill="white"></circle><circle cx="105.12532715957734" cy="1618.0215406338436" r="1" fill="white"></circle><circle cx="1009.2666775460208" cy="907.1124141649949" r="1" fill="white"></circle><circle cx="1217.7792627614772" cy="1896.9848427673708" r="1" fill="white"></circle><circle cx="1406.5537128829244" cy="960.6335723646669" r="1" fill="white"></circle><circle cx="1901.0651685876617" cy="1182.0245077133338" r="1" fill="white"></circle><circle cx="1665.1746493254936" cy="545.0916361781468" r="1" fill="white"></circle><circle cx="319.1072272353561" cy="1757.1627031705202" r="1" fill="white"></circle><circle cx="1277.2730396245406" cy="512.0286961212366" r="1" fill="white"></circle><circle cx="1521.2307276680117" cy="1538.2080747289333" r="1" fill="white"></circle><circle cx="634.8143434813021" cy="1057.1644482732943" r="1" fill="white"></circle><circle cx="424.16474256558524" cy="1134.2518629585231" r="1" fill="white"></circle><circle cx="989.2997385655011" cy="316.226668612666" r="1" fill="white"></circle><circle cx="703.4304261375617" cy="808.7382521065729" r="1" fill="white"></circle><circle cx="1989.9441629854296" cy="673.8976980006237" r="1" fill="white"></circle><circle cx="1906.1790360492914" cy="1713.8279665998537" r="1" fill="white"></circle><circle cx="457.0424725654907" cy="1107.9715304535239" r="1" fill="white"></circle><circle cx="1129.1828526703855" cy="454.9699196628625" r="1" fill="white"></circle><circle cx="731.8980611012864" cy="1317.5310634188957" r="1" fill="white"></circle><circle cx="810.5226929374392" cy="1767.3392716229364" r="1" fill="white"></circle><circle cx="533.2140343052743" cy="532.8588209106781" r="1" fill="white"></circle><circle cx="1522.0548049020454" cy="87.07624371175004" r="1" fill="white"></circle><circle cx="1361.1765874540724" cy="1645.2840487713868" r="1" fill="white"></circle><circle cx="1187.994693128211" cy="85.04158297044384" r="1" fill="white"></circle><circle cx="336.23402750321316" cy="1238.2439967105431" r="1" fill="white"></circle><circle cx="73.92853126418552" cy="846.1320356254367" r="1" fill="white"></circle><circle cx="551.7018173355876" cy="1952.0132122984735" r="1" fill="white"></circle><circle cx="1378.3648155354963" cy="1234.1129372457385" r="1" fill="white"></circle><circle cx="1980.4687061360223" cy="1799.4796101629543" r="1" fill="white"></circle><circle cx="1726.5164329031468" cy="1971.6462557766818" r="1" fill="white"></circle><circle cx="1482.6437508738666" cy="434.78189990646456" r="1" fill="white"></circle><circle cx="1149.243616948366" cy="1764.5219018706393" r="1" fill="white"></circle><circle cx="504.49399866482025" cy="453.95484131576904" r="1" fill="white"></circle><circle cx="43.65122236076324" cy="1704.4775240397562" r="1" fill="white"></circle><circle cx="1794.0118853886795" cy="831.485113014351" r="1" fill="white"></circle><circle cx="1989.0459639336448" cy="543.342070171628" r="1" fill="white"></circle><circle cx="333.1071303333881" cy="581.6171517258697" r="1" fill="white"></circle><circle cx="268.436017027903" cy="1332.3003674398608" r="1" fill="white"></circle><circle cx="556.0330897301191" cy="188.95124415299148" r="1" fill="white"></circle><circle cx="1815.3871813453661" cy="401.315632447691" r="1" fill="white"></circle><circle cx="1647.290000556942" cy="784.9563415990475" r="1" fill="white"></circle><circle cx="493.0650086591761" cy="1473.6494792344445" r="1" fill="white"></circle><circle cx="1050.7671886716867" cy="459.6130848350204" r="1" fill="white"></circle><circle cx="1894.5635093050553" cy="35.23893360132124" r="1" fill="white"></circle><circle cx="1795.9311193656351" cy="248.807905922956" r="1" fill="white"></circle><circle cx="258.9425697097942" cy="1459.4010153680329" r="1" fill="white"></circle><circle cx="841.7539450692075" cy="1277.899133861562" r="1" fill="white"></circle><circle cx="156.16151301163274" cy="1362.9982751800944" r="1" fill="white"></circle><circle cx="1956.79885889558" cy="281.9608301860002" r="1" fill="white"></circle><circle cx="426.5630030671801" cy="1794.176331871534" r="1" fill="white"></circle><circle cx="1431.7747098175646" cy="142.50952086190648" r="1" fill="white"></circle><circle cx="307.6380510805441" cy="1117.0632202650995" r="1" fill="white"></circle><circle cx="573.1141276223091" cy="1391.8806217021654" r="1" fill="white"></circle><circle cx="1254.0549163823277" cy="389.6865551001705" r="1" fill="white"></circle><circle cx="1306.2267809576729" cy="1838.8384557767106" r="1" fill="white"></circle><circle cx="1188.0738330058475" cy="386.80368923522667" r="1" fill="white"></circle><circle cx="520.6858918155066" cy="836.2384067694517" r="1" fill="white"></circle><circle cx="621.0728649286618" cy="847.7845871335923" r="1" fill="white"></circle><circle cx="479.61357105145197" cy="408.551310816827" r="1" fill="white"></circle><circle cx="1706.0510697464192" cy="736.7305013824703" r="1" fill="white"></circle><circle cx="900.6721892936466" cy="1271.3631537918534" r="1" fill="white"></circle><circle cx="1666.0666509596092" cy="1961.4924312909316" r="1" fill="white"></circle><circle cx="1721.9264379073404" cy="296.8301796522814" r="1" fill="white"></circle><circle cx="1616.23673835938" cy="876.581574957397" r="1" fill="white"></circle><circle cx="1869.7942062508237" cy="1399.1342004742685" r="1" fill="white"></circle><circle cx="1710.9960385222957" cy="1687.4453424579494" r="1" fill="white"></circle><circle cx="1689.6998479198483" cy="969.6608666999941" r="1" fill="white"></circle><circle cx="1614.6784824971926" cy="1118.1352713002627" r="1" fill="white"></circle><circle cx="573.4942041841044" cy="1139.5669799912284" r="1" fill="white"></circle><circle cx="279.6096759821749" cy="667.4840221210098" r="1" fill="white"></circle><circle cx="617.3987926338924" cy="978.7252910323665" r="1" fill="white"></circle><circle cx="1937.836597015747" cy="976.0138929254678" r="1" fill="white"></circle><circle cx="1034.7499852939568" cy="1071.169720500158" r="1" fill="white"></circle><circle cx="41.62789157522262" cy="1334.6968056834014" r="1" fill="white"></circle><circle cx="503.72909006976" cy="872.6607608778897" r="1" fill="white"></circle><circle cx="1268.782270774099" cy="951.9690760001498" r="1" fill="white"></circle><circle cx="557.4559242511516" cy="735.9243339831743" r="1" fill="white"></circle><circle cx="486.372268908057" cy="739.3713582432433" r="1" fill="white"></circle><circle cx="1012.4792768404171" cy="1236.5053310020712" r="1" fill="white"></circle><circle cx="195.65034549385274" cy="1948.0892401930391" r="1" fill="white"></circle><circle cx="162.84607773464234" cy="989.5485818094434" r="1" fill="white"></circle><circle cx="159.7224455339452" cy="279.7575677664401" r="1" fill="white"></circle><circle cx="1624.5953964988514" cy="662.018232516178" r="1" fill="white"></circle><circle cx="810.9047380432171" cy="176.02590284751864" r="1" fill="white"></circle><circle cx="1449.8574220029993" cy="1915.7698994215023" r="1" fill="white"></circle><circle cx="501.1006097627644" cy="525.3006126444486" r="1" fill="white"></circle><circle cx="777.9136603192161" cy="549.433565685471" r="1" fill="white"></circle><circle cx="592.9254127170527" cy="1150.1683281371395" r="1" fill="white"></circle><circle cx="1857.1188947324194" cy="272.4834349288381" r="1" fill="white"></circle><circle cx="371.653527736707" cy="1983.3047247302625" r="1" fill="white"></circle><circle cx="1532.6802938945584" cy="927.3596548067586" r="1" fill="white"></circle><circle cx="1267.949358389469" cy="303.8642277060295" r="1" fill="white"></circle><circle cx="781.0444601934465" cy="14.112536628377192" r="1" fill="white"></circle><circle cx="1843.143591523177" cy="264.57924768191" r="1" fill="white"></circle><circle cx="169.6493323213155" cy="1484.1505378211227" r="1" fill="white"></circle><circle cx="1373.303181984833" cy="521.449879328721" r="1" fill="white"></circle><circle cx="1347.5502143056772" cy="178.26770998122177" r="1" fill="white"></circle><circle cx="129.8479234809724" cy="876.8526226743547" r="1" fill="white"></circle><circle cx="871.5086124713011" cy="996.4998664670181" r="1" fill="white"></circle><circle cx="1285.8940852782391" cy="948.2678495909522" r="1" fill="white"></circle><circle cx="532.1759226745253" cy="673.3313606278846" r="1" fill="white"></circle><circle cx="127.89321172443957" cy="1945.0065479783882" r="1" fill="white"></circle><circle cx="1004.9282089248628" cy="274.4041339431798" r="1" fill="white"></circle><circle cx="1946.5850243257564" cy="1387.6164962242958" r="1" fill="white"></circle><circle cx="195.64803106917861" cy="1595.414493819745" r="1" fill="white"></circle><circle cx="1737.0517360237843" cy="1222.9336638998057" r="1" fill="white"></circle><circle cx="908.6905033963171" cy="573.1808260148665" r="1" fill="white"></circle><circle cx="1341.669938213451" cy="1171.0365926951147" r="1" fill="white"></circle><circle cx="1294.2120097284824" cy="1575.5367222265609" r="1" fill="white"></circle><circle cx="1924.01161256441" cy="1875.483944906258" r="1" fill="white"></circle><circle cx="1455.0327625742168" cy="1203.7632019694859" r="1" fill="white"></circle><circle cx="1883.4631007600149" cy="1786.9557288776523" r="1" fill="white"></circle><circle cx="1562.2548631812938" cy="1894.371704401529" r="1" fill="white"></circle><circle cx="435.21118370757915" cy="1722.8822943609355" r="1" fill="white"></circle><circle cx="989.683290593983" cy="403.78011904921874" r="1" fill="white"></circle><circle cx="841.688192212001" cy="1452.1851259723735" r="1" fill="white"></circle><circle cx="724.8352902035657" cy="883.4132144312639" r="1" fill="white"></circle><circle cx="209.5728742722618" cy="1143.7940019577554" r="1" fill="white"></circle><circle cx="578.6055947952034" cy="1477.8481472827268" r="1" fill="white"></circle><circle cx="1709.6667717695575" cy="132.959238226273" r="1" fill="white"></circle><circle cx="779.8005715102083" cy="441.66214238822965" r="1" fill="white"></circle><circle cx="1422.0955198396682" cy="904.3524240216504" r="1" fill="white"></circle><circle cx="922.8817707861441" cy="1633.4104137012253" r="1" fill="white"></circle><circle cx="270.16795208289193" cy="982.0994270934938" r="1" fill="white"></circle><circle cx="977.3309549516944" cy="1177.3928609638663" r="1" fill="white"></circle><circle cx="1505.8696674450798" cy="776.8908040801832" r="1" fill="white"></circle><circle cx="277.5474788777923" cy="543.1649735611908" r="1" fill="white"></circle><circle cx="112.4480742883347" cy="55.93640803302957" r="1" fill="white"></circle><circle cx="1734.1055467093333" cy="299.83353311893615" r="1" fill="white"></circle><circle cx="110.64051626750127" cy="127.47889021068559" r="1" fill="white"></circle><circle cx="1202.0860981636995" cy="89.23495083772926" r="1" fill="white"></circle><circle cx="756.2816017176131" cy="1077.4154386356672" r="1" fill="white"></circle><circle cx="767.9780827894192" cy="784.4280151691976" r="1" fill="white"></circle><circle cx="373.0631264832498" cy="631.1104552613162" r="1" fill="white"></circle><circle cx="899.0612142842722" cy="1831.3955755127195" r="1" fill="white"></circle><circle cx="1490.1423824627961" cy="1595.3635209121253" r="1" fill="white"></circle><circle cx="698.2129028440389" cy="180.9536239702929" r="1" fill="white"></circle><circle cx="735.5449351599401" cy="393.9834790108314" r="1" fill="white"></circle><circle cx="1019.4501711129523" cy="85.82514052731139" r="1" fill="white"></circle><circle cx="415.81290747890256" cy="1303.4759993801233" r="1" fill="white"></circle><circle cx="275.556967259674" cy="590.7291900384597" r="1" fill="white"></circle><circle cx="1229.7773265202552" cy="572.6303157854895" r="1" fill="white"></circle><circle cx="1684.5581566352168" cy="1139.7347591953699" r="1" fill="white"></circle><circle cx="1326.151117457767" cy="474.28274611897024" r="1" fill="white"></circle><circle cx="1950.9278356066418" cy="1640.0516227589642" r="1" fill="white"></circle><circle cx="175.0240905169358" cy="1523.2749035959841" r="1" fill="white"></circle><circle cx="1114.8370152188352" cy="119.54552216485892" r="1" fill="white"></circle><circle cx="253.5435273744544" cy="484.75815468464754" r="1" fill="white"></circle><circle cx="972.6251084590353" cy="928.7448419028359" r="1" fill="white"></circle><circle cx="1841.1826497876089" cy="1767.1018062904288" r="1" fill="white"></circle><circle cx="42.15456265565631" cy="673.2763512725132" r="1" fill="white"></circle><circle cx="58.00970284435003" cy="297.30188036369753" r="1" fill="white"></circle><circle cx="1209.949429840656" cy="873.549419463564" r="1" fill="white"></circle><circle cx="1977.925546595434" cy="1426.0957580658373" r="1" fill="white"></circle><circle cx="1503.723513206789" cy="1290.875870542062" r="1" fill="white"></circle><circle cx="959.3169982971972" cy="1001.1902748042694" r="1" fill="white"></circle><circle cx="1422.8764295595977" cy="934.9053517696792" r="1" fill="white"></circle><circle cx="337.3832503751411" cy="1275.352954614517" r="1" fill="white"></circle><circle cx="79.0442247517693" cy="1369.8003352222709" r="1" fill="white"></circle><circle cx="1831.0871861568087" cy="1290.8277214064005" r="1" fill="white"></circle><circle cx="544.6496111688473" cy="1003.2499738910765" r="1" fill="white"></circle><circle cx="1404.875865264116" cy="283.12041566036237" r="1" fill="white"></circle><circle cx="1167.1364331096358" cy="683.6321119659688" r="1" fill="white"></circle><circle cx="655.0811689673072" cy="1537.2833615302186" r="1" fill="white"></circle><circle cx="1548.021392175936" cy="185.0376327618375" r="1" fill="white"></circle><circle cx="50.15488703000237" cy="416.80005622613913" r="1" fill="white"></circle><circle cx="893.744767952497" cy="1492.2108578009374" r="1" fill="white"></circle><circle cx="1829.6809562758033" cy="448.1278475662656" r="1" fill="white"></circle><circle cx="1146.6332093485457" cy="301.77749434484235" r="1" fill="white"></circle><circle cx="1800.4082013789143" cy="517.5105360641923" r="1" fill="white"></circle><circle cx="1529.7873985193653" cy="821.1478972471701" r="1" fill="white"></circle><circle cx="1047.2145497341248" cy="1420.3749549299198" r="1" fill="white"></circle><circle cx="70.10203156453531" cy="1132.9729968669824" r="1" fill="white"></circle><circle cx="1808.3082423934234" cy="554.6358083868732" r="1" fill="white"></circle><circle cx="1441.2844422794317" cy="272.99019363778854" r="1" fill="white"></circle><circle cx="717.9755581729416" cy="1668.721836581795" r="1" fill="white"></circle><circle cx="1729.760485784019" cy="417.48624807342736" r="1" fill="white"></circle><circle cx="695.948050402389" cy="691.9878022449" r="1" fill="white"></circle><circle cx="1459.7336606796127" cy="521.6423576307436" r="1" fill="white"></circle><circle cx="1950.9959236306736" cy="1672.2646778927142" r="1" fill="white"></circle><circle cx="92.73747020139167" cy="572.434563742509" r="1" fill="white"></circle><circle cx="1296.8085545826211" cy="1752.5205177982425" r="1" fill="white"></circle><circle cx="919.4856138158754" cy="1483.4914580001946" r="1" fill="white"></circle><circle cx="1408.4633552496766" cy="1081.3967024468427" r="1" fill="white"></circle><circle cx="716.4793960626525" cy="1593.618894132092" r="1" fill="white"></circle><circle cx="877.0501316077053" cy="1844.2483764686215" r="1" fill="white"></circle><circle cx="79.55112167673394" cy="1399.0383941460918" r="1" fill="white"></circle><circle cx="1021.1272794153281" cy="1193.5063985991615" r="1" fill="white"></circle><circle cx="942.4565758780967" cy="168.8280012273866" r="1" fill="white"></circle><circle cx="243.72159135326842" cy="76.20740256715442" r="1" fill="white"></circle><circle cx="1738.2685621739715" cy="996.4224474536132" r="1" fill="white"></circle><circle cx="1931.325993270328" cy="822.2963530504379" r="1" fill="white"></circle><circle cx="45.152332355250294" cy="1256.535243536279" r="1" fill="white"></circle><circle cx="385.9654855574934" cy="288.61944866467627" r="1" fill="white"></circle><circle cx="1998.6119067930774" cy="546.2996054509426" r="1" fill="white"></circle><circle cx="662.535413117641" cy="1634.9412802559566" r="1" fill="white"></circle><circle cx="1097.006091741672" cy="1414.3256919042378" r="1" fill="white"></circle><circle cx="1415.1901121031508" cy="808.778620944881" r="1" fill="white"></circle><circle cx="1268.7171555872746" cy="583.6120986530759" r="1" fill="white"></circle><circle cx="1870.5070090734002" cy="1279.6380576490915" r="1" fill="white"></circle><circle cx="1448.652257948674" cy="1720.804399712919" r="1" fill="white"></circle><circle cx="1168.1189394254136" cy="1976.137568437675" r="1" fill="white"></circle><circle cx="1557.0038987686319" cy="1099.014929573694" r="1" fill="white"></circle><circle cx="534.2989112421033" cy="1199.034528541228" r="1" fill="white"></circle><circle cx="878.6195939643915" cy="1731.0569776322925" r="1" fill="white"></circle><circle cx="1712.8041897399426" cy="1973.2377475498035" r="1" fill="white"></circle><circle cx="467.0994546317897" cy="1749.35510073684" r="1" fill="white"></circle></pattern><rect width="100%" height="100%" fill="url(#stars)"></rect></svg>